# xmcd CD Database Entry
#
# Track frame offsets:
# 150
# 36604
# 61052
# 92142
# 123587
# 149657
# 174092
# 208418
# 231509
# 259288
# 282843
# 320809
#
# Disc length: 4645 seconds
#
# Revision: 1
# Processed by: cddbd v1.4PL0 Copyright (c) Steve Scherf et al.
# Submitted via: tcd 2.0b
#
DISCID=c412230c
DTITLE=Desconhecido - Desconhecido
DYEAR=1900
DGENRE=
TTITLE0=Faixa 1
TTITLE1=Faixa 2
TTITLE2=Faixa 3
TTITLE3=Faixa 4
TTITLE4=Faixa 5
TTITLE5=Faixa 6
TTITLE6=Faixa 7
TTITLE7=Faixa 8
TTITLE8=Faixa 9
TTITLE9=Faixa 10
TTITLE10=Faixa 11
TTITLE11=Faixa 12
EXTD=
EXTT0=
EXTT1=
EXTT2=
EXTT3=
EXTT4=
EXTT5=
EXTT6=
EXTT7=
EXTT8=
EXTT9=
EXTT10=
EXTT11=
PLAYORDER=
